<?xml version="1.0" encoding="UTF-8" standalone="no"?>
<svg
   height="16"
   viewBox="0 0 16 16"
   width="16"
   version="1.1"
   id="svg4"
   sodipodi:docname="RelativeRemoteTransform3DReceiver.svg"
   inkscape:version="1.1.2 (0a00cf5339, 2022-02-04)"
   xmlns:inkscape="http://www.inkscape.org/namespaces/inkscape"
   xmlns:sodipodi="http://sodipodi.sourceforge.net/DTD/sodipodi-0.dtd"
   xmlns="http://www.w3.org/2000/svg"
   xmlns:svg="http://www.w3.org/2000/svg">
  <defs
     id="defs8" />
  <sodipodi:namedview
     id="namedview6"
     pagecolor="#ffffff"
     bordercolor="#666666"
     borderopacity="1.0"
     inkscape:pageshadow="2"
     inkscape:pageopacity="0.0"
     inkscape:pagecheckerboard="0"
     showgrid="false"
     inkscape:zoom="52.3125"
     inkscape:cx="8.181601"
     inkscape:cy="8.8984468"
     inkscape:window-width="1920"
     inkscape:window-height="1011"
     inkscape:window-x="0"
     inkscape:window-y="0"
     inkscape:window-maximized="1"
     inkscape:current-layer="svg4" />
  <path
     d="M 8,9 C 7.5285955,9 7,9.4477153 7,10 v 1 H 4 c 0,5.333331 8,5.333331 8,0 H 9 V 10 C 9,9.4477153 8.4714045,9 8,9 Z"
     id="path596"
     style="fill:#3771c8" />
  <path
     d="M 8,4.4498832 C 6.18976,4.4495314 4.6053996,3.2334743 4.137,1.4848832 3.8422208,0.22688706 5.6947782,-0.26911094 6.068,0.96788324 c 0.5291872,1.97722096 3.3348128,1.97722096 3.864,0 0.373222,-1.23699418 2.225779,-0.74099618 1.931,0.51699996 -0.4684,1.7485911 -2.05276,2.9646482 -3.863,2.965 z"
     id="path594"
     style="fill:#3771c8" />
  <path
     d="m 8,8.4498832 c -2.8580521,-7.26e-5 -5.4989739,-1.5248543 -6.928,-4 -0.66666636,-1.1553328 1.0663336,-2.1553328 1.733,-1 2.3099123,3.9973397 8.080088,3.9973397 10.39,0 0.666666,-1.1553328 2.399666,-0.1553328 1.733,1 -1.429026,2.4751457 -4.069948,3.9999274 -6.928,4 z"
     id="path2"
     style="fill:#3771c8" />
</svg>
